<svg width="24" height="24" viewBox="0 0 24 24" fill="none" xmlns="http://www.w3.org/2000/svg">
<path d="M12.7858 0H10.9448C7.14032 0 4.16016 3.10044 4.16016 7.05847V16.9408C4.16016 20.8992 7.14032 24 10.9448 24H12.7858C16.6774 24 19.8435 20.8333 19.8435 16.9408V7.05847C19.8435 3.16644 16.6774 0 12.7858 0ZM11.9306 3.69896H12.073C12.2957 3.69896 12.4769 3.8801 12.4769 4.10277V6.97754C12.4769 7.20021 12.2957 7.38135 12.073 7.38135H11.9306C11.708 7.38135 11.5268 7.20021 11.5268 6.97754V4.10277C11.5268 3.8801 11.708 3.69896 11.9306 3.69896ZM18.9205 16.9408C18.9205 20.3243 16.1685 23.077 12.7858 23.077H10.9448C7.65784 23.077 5.08316 20.3816 5.08316 16.9408V7.05847C5.08316 3.61808 7.6579 0.923008 10.9448 0.923008H11.5346V2.83635C10.9958 3.0052 10.6038 3.50905 10.6038 4.10283V6.9776C10.6038 7.57132 10.9958 8.07522 11.5346 8.24402V10.6188C11.5346 10.8737 11.7413 11.0803 11.9961 11.0803C12.251 11.0803 12.4577 10.8737 12.4577 10.6188V8.24737C13.0023 8.08209 13.3999 7.57547 13.3999 6.9776V4.10277C13.3999 3.50489 13.0023 2.99828 12.4577 2.83294V0.923008H12.7858C16.1685 0.923008 18.9205 3.67536 18.9205 7.05847V16.9408Z" fill="#212D55"/>
</svg>
