<svg width="11" height="11" viewBox="0 0 11 11" fill="none" xmlns="http://www.w3.org/2000/svg">
<g clip-path="url(#clip0_135_3438)">
<path d="M2.65723 5.19822L7.74505 0.124468C7.91175 -0.04167 8.18163 -0.0413907 8.34805 0.125327C8.51434 0.292024 8.51391 0.56206 8.34719 0.728327L3.56221 5.50009L8.34736 10.2718C8.51406 10.4381 8.51449 10.708 8.34822 10.8747C8.2648 10.9583 8.15551 11.0001 8.04622 11.0001C7.93721 11.0001 7.82835 10.9586 7.74507 10.8756L2.65723 5.80195C2.57694 5.72207 2.53189 5.61336 2.53189 5.50009C2.53189 5.38683 2.57707 5.27825 2.65723 5.19822Z" fill="#212D55"/>
</g>
<defs>
<clipPath id="clip0_135_3438">
<rect width="11" height="11" fill="white" transform="matrix(-1 0 0 1 11 0)"/>
</clipPath>
</defs>
</svg>
